<svg width="16" height="19" viewBox="0 0 16 19" fill="none" xmlns="http://www.w3.org/2000/svg">
<path fill-rule="evenodd" clip-rule="evenodd" d="M6.60352 16.7549C7.03519 17.2358 7.58935 17.4999 8.16435 17.4999H8.16519C8.74269 17.4999 9.29936 17.2358 9.73186 16.7541C9.96352 16.4983 10.3585 16.4774 10.6144 16.7083C10.871 16.9391 10.8919 17.3349 10.661 17.5908C9.98769 18.3383 9.10186 18.7499 8.16519 18.7499H8.16352C7.22935 18.7491 6.34519 18.3374 5.67436 17.5899C5.44352 17.3341 5.46435 16.9383 5.72102 16.7083C5.97769 16.4766 6.37269 16.4974 6.60352 16.7549ZM8.20585 0.833252C11.91 0.833252 14.3984 3.71825 14.3984 6.41242C14.3984 7.79825 14.7509 8.38575 15.125 9.00909C15.495 9.62409 15.9142 10.3224 15.9142 11.6424C15.6234 15.0149 12.1025 15.2899 8.20585 15.2899C4.30919 15.2899 0.787522 15.0149 0.500011 11.6958C0.497522 10.3224 0.916689 9.62409 1.28669 9.00909L1.41731 8.78922C1.73892 8.23647 2.01336 7.63521 2.01336 6.41242C2.01336 3.71825 4.50169 0.833252 8.20585 0.833252ZM8.20585 2.08325C5.29335 2.08325 3.26336 4.36492 3.26336 6.41242C3.26336 8.14492 2.78252 8.94575 2.35752 9.65242C2.01669 10.2199 1.74752 10.6683 1.74752 11.6424C1.88669 13.2141 2.92419 14.0399 8.20585 14.0399C13.4584 14.0399 14.5284 13.1774 14.6667 11.5883C14.6642 10.6683 14.395 10.2199 14.0542 9.65242C13.6292 8.94575 13.1484 8.14492 13.1484 6.41242C13.1484 4.36492 11.1184 2.08325 8.20585 2.08325Z" fill="black"/>
</svg>
