<svg width="138" height="138" viewBox="0 0 138 138" fill="none" xmlns="http://www.w3.org/2000/svg">
<path d="M35.9268 24.1436H94.5701V90.9302C94.5701 93.7186 92.3097 95.979 89.5214 95.979H35.9268V24.1436Z" fill="#89C239"/>
<path fill-rule="evenodd" clip-rule="evenodd" d="M116.057 31.9633C117.619 33.5219 117.619 36.0487 116.057 37.6073L95.6749 57.9512C93.5929 60.0292 90.2174 60.0292 88.1354 57.9512L78.4154 48.2495C76.8539 46.691 76.8539 44.1641 78.4154 42.6056C79.9769 41.0471 82.5085 41.0471 84.07 42.6056L91.9051 50.4259L110.403 31.9633C111.964 30.4048 114.496 30.4048 116.057 31.9633Z" fill="#3BB302" stroke="white" stroke-width="1.68293" stroke-linecap="round"/>
<path d="M17.0259 16.3271L21.8194 20.2939L27.9577 19.2508L23.982 24.0263L25.0328 30.1461L20.2394 26.1793L14.101 27.2225L18.0768 22.447L17.0259 16.3271Z" fill="#F7DE00"/>
<path d="M119.556 86.3237L120.116 93.0302L125.58 96.972L118.861 97.5301L114.912 102.985L114.353 96.2781L108.888 92.3363L115.607 91.7781L119.556 86.3237Z" fill="#F7DE00"/>
<line x1="18.2317" y1="95.3424" x2="18.2317" y2="120.265" stroke="#8BACEF" stroke-width="1.68293" stroke-linecap="round"/>
<line x1="30.2264" y1="113.966" x2="30.2264" y2="124.256" stroke="#8BACEF" stroke-width="1.68293" stroke-linecap="round"/>
<line x1="104.627" y1="109.317" x2="104.627" y2="115.616" stroke="#8BACEF" stroke-width="1.68293" stroke-linecap="round"/>
<line x1="93.9634" y1="111.977" x2="93.9634" y2="118.276" stroke="#8BACEF" stroke-width="1.68293" stroke-linecap="round"/>
<path fill-rule="evenodd" clip-rule="evenodd" d="M83.9075 84.0059H29.262V90.9296C29.262 93.718 31.5224 95.9784 34.3108 95.9784H89.1859C86.2659 95.9501 83.9075 93.5742 83.9075 90.6475V84.0059ZM89.2916 95.9784H90.5709V95.8109C90.1614 95.9162 89.7329 95.9741 89.2916 95.9784Z" fill="#D4D4D4"/>
<line x1="53.8137" y1="31.9756" x2="75.3494" y2="31.9756" stroke="white" stroke-width="1.12195" stroke-linecap="round"/>
<line x1="56.4786" y1="36.7667" x2="72.6831" y2="36.7667" stroke="white" stroke-width="1.12195" stroke-linecap="round"/>
<line x1="43.1519" y1="48.4" x2="54.0251" y2="48.4" stroke="white" stroke-width="1.12195" stroke-linecap="round"/>
<line x1="43.1519" y1="65.6934" x2="54.0251" y2="65.6934" stroke="white" stroke-width="1.12195" stroke-linecap="round"/>
<line x1="43.1519" y1="53.7208" x2="59.3563" y2="53.7208" stroke="white" stroke-width="1.12195" stroke-linecap="round"/>
<line x1="43.1519" y1="71.0142" x2="59.3563" y2="71.0142" stroke="white" stroke-width="1.12195" stroke-linecap="round"/>
<line x1="43.1519" y1="59.0421" x2="63.3548" y2="59.0421" stroke="white" stroke-width="1.12195" stroke-linecap="round"/>
<line x1="43.1519" y1="76.3355" x2="63.3548" y2="76.3355" stroke="white" stroke-width="1.12195" stroke-linecap="round"/>
</svg>
