<svg width="20" height="20" viewBox="0 0 20 20" fill="none" xmlns="http://www.w3.org/2000/svg">
<path fill-rule="evenodd" clip-rule="evenodd" d="M16.5333 15.161C16.5333 17.9077 12.7666 18.2252 9.93409 18.2252L9.73139 18.225C7.92676 18.2206 3.33325 18.1067 3.33325 15.1443C3.33325 12.4537 6.94855 12.0941 9.75949 12.0806L10.1368 12.0803C11.9413 12.0847 16.5333 12.1987 16.5333 15.161ZM9.93409 13.3302C6.38325 13.3302 4.58325 13.9402 4.58325 15.1443C4.58325 16.3593 6.38325 16.9752 9.93409 16.9752C13.4841 16.9752 15.2833 16.3652 15.2833 15.161C15.2833 13.946 13.4841 13.3302 9.93409 13.3302ZM9.93409 1.6665C12.3741 1.6665 14.3583 3.6515 14.3583 6.0915C14.3583 8.5315 12.3741 10.5157 9.93409 10.5157H9.90742C7.47242 10.5082 5.49992 8.52234 5.50823 6.089C5.50823 3.6515 7.49325 1.6665 9.93409 1.6665ZM9.93409 2.8565C8.14992 2.8565 6.69823 4.30734 6.69823 6.0915C6.69242 7.86984 8.13325 9.31984 9.90992 9.3265L9.93409 9.9215V9.3265C11.7174 9.3265 13.1683 7.87484 13.1683 6.0915C13.1683 4.30734 11.7174 2.8565 9.93409 2.8565Z" fill="black"/>
</svg>
